<svg xmlns="http://www.w3.org/2000/svg" width="90" height="90" viewBox="0 0 90 90"><g><path d="M42 40C28 14 6 12 8 26c2 14 22 18 34 14z" fill="#ffc7f2" stroke="#d63fb5" stroke-width="1.5"/><path d="M44 42C62 22 80 28 76 40c-4 10-20 10-32 2z" fill="#ffd9f7" stroke="#d63fb5" stroke-width="1.5"/><animateTransform attributeName="transform" type="rotate" values="-4 45 45;5 45 45;-4 45 45" dur=".8s" repeatCount="indefinite"/></g><path d="M48 46c-6 0-9 6-8 12l-8 24h30L52 58c1-6-2-12-4-12z" fill="#ff5fc8" stroke="#a0207f" stroke-width="1.5"/><circle cx="48" cy="36" r="8" fill="#ffd9b0" stroke="#a0207f" stroke-width="1.5"/><path d="M40 33c0-8 14-10 16-2-4-2-10-2-16 2z" fill="#ffd23f" stroke="#b08000"/><path d="M54 60l24-18" stroke="#ffe55a" stroke-width="2.5"/><path d="M78 36l2 6 6 1-5 4 2 6-5-4-5 3 2-6-4-5 6 0z" fill="#fff36b" stroke="#c9a400"/></svg>
